Coordinates
version=1
nRows=13
nColumns=22
inDegrees=yes

Units are S.I. units (second, meters, Newtons, ...)
If the header above contains a line with 'inDegrees', this indicates whether rotational values are in degrees (yes) or radians (no).

endheader
time	pelvis_tilt	pelvis_list	pelvis_rotation	pelvis_tx	pelvis_ty	pelvis_tz	hip_flexion_r	hip_adduction_r	hip_rotation_r	knee_angle_r	ankle_angle_r	subtalar_angle_r	hip_flexion_l	hip_adduction_l	hip_rotation_l	knee_angle_l	ankle_angle_l	subtalar_angle_l	lumbar_extension	lumbar_bending	lumbar_rotation
      6.55000000	     -0.36316167	     -1.43394040	   -113.49411594	      0.69412642	      1.00947852	      0.47716735	     17.54093260	     -0.51888137	     -7.90863245	    -51.59419148	      8.20747002	      1.49477141	      7.86210908	     -0.04936010	     -2.28080024	    -16.97045872	      9.45058271	      3.36807152	    -16.48059601	     -2.74699182	      1.59021954
      6.56000000	     -0.42597832	     -1.41566509	   -113.94292307	      0.69276368	      1.00977193	      0.48190757	     17.83670368	     -0.59418112	     -8.51694460	    -50.18841239	      8.73464468	      1.81794185	      7.41861541	     -0.08774434	     -2.72680248	    -16.82121535	      9.69031328	      3.21404012	    -16.54891021	     -2.68251222	      1.36061683
      6.57000000	     -0.48356467	     -1.38863611	   -114.40453752	      0.69134664	      1.01000744	      0.48661040	     18.10857790	     -0.71630887	     -9.18847029	    -48.73045886	      9.21377680	      1.94344476	      6.99622850	     -0.12180378	     -3.18660640	    -16.69219837	      9.92815420	      3.05314245	    -16.60395289	     -2.61546453	      1.15912141
      6.58000000	     -0.49208020	     -1.30694692	   -114.88038605	      0.68987934	      1.01006243	      0.49125016	     18.44129744	     -0.89676479	     -9.90286228	    -47.25759724	      9.69963970	      1.93307501	      6.67720676	     -0.13191188	     -3.66763129	    -16.61270939	     10.16364496	      2.96061931	    -16.57645909	     -2.57236891	      0.99529849
      6.59000000	     -0.60937276	     -1.31095863	   -115.39089702	      0.68825500	      1.01032071	      0.49591248	     18.57998012	     -1.01745149	    -10.65813397	    -45.68806308	     10.05928652	      1.72279599	      6.18737982	     -0.20543712	     -4.12865919	    -16.47965123	     10.44965638	      2.71424632	    -16.68584847	     -2.46290172	      0.90838480
      6.60000000	     -0.67706024	     -1.26255718	   -115.92263328	      0.68653644	      1.01040304	      0.50050237	     18.78956496	     -1.16238445	    -11.40922365	    -44.12463394	     10.42492583	      1.45399144	      5.79653111	     -0.25634672	     -4.62251235	    -16.39358853	     10.72482553	      2.52659657	    -16.71430460	     -2.38497232	      0.84348960
      6.61000000	     -0.75555983	     -1.20220098	   -116.47730766	      0.68468081	      1.01043277	      0.50503652	     18.99120623	     -1.27432676	    -12.14719673	    -42.54650555	     10.73896876	      1.16897224	      5.42169845	     -0.32635939	     -5.13444620	    -16.33271715	     11.02022275	      2.35156499	    -16.73537267	     -2.29871448	      0.82466122
      6.62000000	     -0.83638309	     -1.12472293	   -117.05180482	      0.68269661	      1.01039530	      0.50952129	     19.20188720	     -1.34621550	    -12.84057844	    -40.96908567	     11.00413226	      0.92543604	      5.06906237	     -0.40854153	     -5.66299719	    -16.29237681	     11.33454444	      2.19212389	    -16.73575705	     -2.20492930	      0.82119919
      6.63000000	     -0.93999062	     -1.08590720	   -117.63514058	      0.68058600	      1.01039738	      0.51395309	     19.35958267	     -1.39251245	    -13.52595930	    -39.39974404	     11.15876662	      0.61420311	      4.67554298	     -0.49605286	     -6.20877757	    -16.27335290	     11.60012035	      1.98764795	    -16.79266949	     -2.11551514	      0.86822163
      6.64000000	     -1.03613786	     -0.97895442	   -118.22839735	      0.67834211	      1.01023415	      0.51827825	     19.59761391	     -1.36219702	    -14.10883501	    -37.86084535	     11.27276702	      0.51451173	      4.37339718	     -0.61687750	     -6.75547747	    -16.30322486	     11.94284978	      1.85015271	    -16.77517908	     -2.00150514	      0.92137445
      6.65000000	     -1.16501595	     -0.92412251	   -118.83209579	      0.67596923	      1.01014092	      0.52255335	     19.76894097	     -1.29113309	    -14.63654588	    -36.34171869	     11.26740919	      0.40919353	      3.99891056	     -0.74418108	     -7.31743007	    -16.33258914	     12.24418488	      1.66576776	    -16.83061735	     -1.88469755	      1.01038025
      6.66000000	     -1.27609109	     -0.80884041	   -119.43179260	      0.67349404	      1.00989331	      0.52670771	     20.02062194	     -1.15895118	    -15.05309196	    -34.86408942	     11.20088898	      0.45465103	      3.71548322	     -0.89270964	     -7.87310610	    -16.41156302	     12.59522476	      1.54487859	    -16.81873501	     -1.75303969	      1.08225431
      6.67000000	     -1.38985008	     -0.69588551	   -120.02581879	      0.67094798	      1.00960534	      0.53079702	     20.27891691	     -1.00067760	    -15.41177204	    -33.43629976	     11.05224194	      0.55887948	      3.44643086	     -1.04965836	     -8.45464026	    -16.52988752	     12.93173503	      1.43753213	    -16.81438727	     -1.61308900	      1.15940858
